<svg width="32" height="32" viewBox="0 0 32 32" fill="none" xmlns="http://www.w3.org/2000/svg">
<circle cx="16" cy="15" r="11" fill="#EB5151"/>
<path fill-rule="evenodd" clip-rule="evenodd" d="M16 32C7.16354 32 0 24.8365 0 16C0 7.16353 7.16354 0 16 0C24.8365 0 32 7.16353 32 16C32 24.8365 24.8365 32 16 32ZM21.9981 17.533L16.7888 22.7423C16.5795 22.9514 16.2958 23.0688 16 23.0688C15.7042 23.0688 15.4205 22.9514 15.2112 22.7423L10.0019 17.533C9.89219 17.4308 9.80422 17.3076 9.74321 17.1707C9.6822 17.0337 9.64939 16.8859 9.64675 16.736C9.6441 16.5861 9.67167 16.4373 9.72782 16.2983C9.78396 16.1593 9.86752 16.033 9.97352 15.927C10.0795 15.821 10.2058 15.7374 10.3448 15.6813C10.4838 15.6252 10.6327 15.5976 10.7825 15.6002C10.9324 15.6029 11.0802 15.6357 11.2172 15.6967C11.3541 15.7577 11.4773 15.8457 11.5795 15.9553L14.8837 19.2595V10.0465C14.8837 9.75045 15.0013 9.46653 15.2107 9.25718C15.42 9.04784 15.7039 8.93023 16 8.93023C16.2961 8.93023 16.58 9.04784 16.7893 9.25718C16.9987 9.46653 17.1163 9.75045 17.1163 10.0465V19.2595L20.4205 15.9553C20.5227 15.8457 20.6459 15.7577 20.7828 15.6967C20.9198 15.6357 21.0676 15.6029 21.2175 15.6002C21.3673 15.5976 21.5162 15.6252 21.6552 15.6813C21.7942 15.7374 21.9205 15.821 22.0265 15.927C22.1325 16.033 22.216 16.1593 22.2722 16.2983C22.3283 16.4373 22.3559 16.5861 22.3533 16.736C22.3506 16.8859 22.3178 17.0337 22.2568 17.1707C22.1958 17.3076 22.1078 17.4308 21.9981 17.533Z" fill="#603131"/>
</svg>
