<svg width="32" height="32" viewBox="0 0 32 32" fill="none" xmlns="http://www.w3.org/2000/svg">
<circle cx="16" cy="15" r="11" fill="#4ADE80"/>
<path fill-rule="evenodd" clip-rule="evenodd" d="M16 0C7.16354 0 0 7.16354 0 16C0 24.8365 7.16354 32 16 32C24.8365 32 32 24.8365 32 16C32 7.16354 24.8365 0 16 0ZM21.9981 14.467L16.7888 9.25767C16.5795 9.04863 16.2958 8.93122 16 8.93122C15.7042 8.93122 15.4205 9.04863 15.2112 9.25767L10.0019 14.467C9.89219 14.5692 9.80422 14.6924 9.74321 14.8293C9.6822 14.9663 9.64939 15.1141 9.64675 15.264C9.6441 15.4139 9.67167 15.5627 9.72782 15.7017C9.78396 15.8407 9.86752 15.967 9.97352 16.073C10.0795 16.179 10.2058 16.2626 10.3448 16.3187C10.4838 16.3748 10.6327 16.4024 10.7825 16.3998C10.9324 16.3971 11.0802 16.3643 11.2172 16.3033C11.3541 16.2423 11.4773 16.1543 11.5795 16.0447L14.8837 12.7405V21.9535C14.8837 22.2495 15.0013 22.5335 15.2107 22.7428C15.42 22.9522 15.7039 23.0698 16 23.0698C16.2961 23.0698 16.58 22.9522 16.7893 22.7428C16.9987 22.5335 17.1163 22.2495 17.1163 21.9535V12.7405L20.4205 16.0447C20.5227 16.1543 20.6459 16.2423 20.7828 16.3033C20.9198 16.3643 21.0676 16.3971 21.2175 16.3998C21.3673 16.4024 21.5162 16.3748 21.6552 16.3187C21.7942 16.2626 21.9205 16.179 22.0265 16.073C22.1325 15.967 22.216 15.8407 22.2722 15.7017C22.3283 15.5627 22.3559 15.4139 22.3533 15.264C22.3506 15.1141 22.3178 14.9663 22.2568 14.8293C22.1958 14.6924 22.1078 14.5692 21.9981 14.467Z" fill="#244840"/>
</svg>
