<svg width="48" height="44" viewBox="0 0 48 44" fill="none" xmlns="http://www.w3.org/2000/svg">
<path d="M6.62608 6.20658V0.0351562H10.7141V6.20658H16.846V10.3209H10.7141V16.4923H6.62608V10.3209H0.494106V6.20658M12.758 18.5494V12.378H18.89V6.20658H33.1979L36.8771 10.3209H43.4179C45.6663 10.3209 47.5059 12.1723 47.5059 14.4352V39.1209C47.5059 41.3837 45.6663 43.2352 43.4179 43.2352H10.7141C8.46567 43.2352 6.62608 41.3837 6.62608 39.1209V18.5494M27.066 37.0637C36.1617 37.0637 40.7403 25.9963 34.3017 19.4957C27.8631 13.0157 16.846 17.6237 16.846 26.778C16.846 32.4557 21.4246 37.0637 27.066 37.0637ZM20.5252 26.778C20.5252 32.6409 27.577 35.5826 31.6854 31.4272C35.8142 27.2923 32.8913 20.1952 27.066 20.1952C25.3329 20.2006 23.6724 20.8959 22.4469 22.1292C21.2214 23.3626 20.5306 25.0338 20.5252 26.778Z" fill="#2D3748"/>
</svg>
