<svg width="32" height="32" viewBox="0 0 32 32" fill="none" xmlns="http://www.w3.org/2000/svg">
<circle cx="16" cy="15.8335" r="11" fill="white"/>
<path d="M15.9998 0C24.7446 0 31.8332 7.08858 31.8332 15.8333C31.8332 24.5781 24.7446 31.6667 15.9998 31.6667C7.25509 31.6667 0.166504 24.5781 0.166504 15.8333C0.166504 7.08858 7.25509 0 15.9998 0ZM22.3332 14.25H9.6665C9.24658 14.25 8.84385 14.4168 8.54692 14.7137C8.24999 15.0107 8.08317 15.4134 8.08317 15.8333C8.08317 16.2533 8.24999 16.656 8.54692 16.9529C8.84385 17.2499 9.24658 17.4167 9.6665 17.4167H22.3332C22.7531 17.4167 23.1558 17.2499 23.4528 16.9529C23.7497 16.656 23.9165 16.2533 23.9165 15.8333C23.9165 15.4134 23.7497 15.0107 23.4528 14.7137C23.1558 14.4168 22.7531 14.25 22.3332 14.25Z" fill="#2764E4"/>
</svg>
