<svg width="29" height="29" viewBox="0 0 29 29" fill="none" xmlns="http://www.w3.org/2000/svg">
<circle cx="14.5" cy="14.5" r="14.5" fill="#2764E4"/>
<path d="M16.7533 8.72855C17.22 8.26195 17.8528 7.99988 18.5126 8C19.1724 8.00012 19.8052 8.26242 20.2717 8.7292C20.7381 9.19598 21.0001 9.829 21 10.489C20.9999 11.149 20.7377 11.7819 20.271 12.2485L19.9669 12.5527L16.4492 9.03402L16.7533 8.72855ZM15.5305 9.95301L8.84471 16.6394C8.75447 16.7301 8.69299 16.8454 8.66799 16.9709L8.01305 20.2205C7.99168 20.3255 7.99661 20.4342 8.0274 20.5368C8.05819 20.6395 8.11389 20.7329 8.18952 20.8089C8.26516 20.8848 8.35839 20.9408 8.46092 20.9719C8.56344 21.0031 8.67207 21.0084 8.77714 20.9874L12.031 20.3375C12.1566 20.3121 12.2719 20.2501 12.3624 20.1594L19.0482 13.4717L15.5305 9.95301Z" fill="white"/>
</svg>
