<svg width="16" height="15" viewBox="0 0 16 15" fill="none" xmlns="http://www.w3.org/2000/svg">
<path d="M8 7.5C7.48192 7.5 6.96385 7.41382 6.56 7.24147L0.867692 4.80793C0.607308 4.69687 0 4.372 0 3.75865C0 3.14531 0.607308 2.82115 0.868462 2.70865L6.61 0.254207C7.40115 -0.0847356 8.595 -0.0847356 9.38654 0.254207L15.1315 2.70865C15.3927 2.82007 16 3.14495 16 3.75865C16 4.37236 15.3927 4.69615 15.1315 4.80829L9.43923 7.24147C9.03615 7.41382 8.51808 7.5 8 7.5Z" fill="#64A4EB"/>
<path d="M15.1292 6.44746L14.5488 6.2019L13.0577 6.84157L9.44231 8.39205C9.03846 8.56512 8.51923 8.6513 8.00231 8.6513C7.48538 8.6513 6.96654 8.56512 6.56308 8.39205L2.945 6.84157L1.45346 6.2019L0.868077 6.44854C0.607308 6.55996 0 6.887 0 7.49998C0 8.11296 0.607308 8.44037 0.867692 8.55178L6.56 10.9904C6.96154 11.1634 7.48038 11.25 8 11.25C8.51962 11.25 9.03615 11.1634 9.44 10.9907L15.1273 8.55287C15.3892 8.44145 16 8.11621 16 7.49998C16 6.88376 15.3935 6.55996 15.1292 6.44746Z" fill="#64A4EB"/>
<path d="M15.1292 10.1971L14.5488 9.9519L13.0577 10.5912L9.44231 12.1399C9.03846 12.3122 8.51923 12.3988 8.00231 12.3988C7.48538 12.3988 6.96654 12.3126 6.56308 12.1399L2.945 10.5894L1.45346 9.9519L0.868077 10.1985C0.607308 10.31 0 10.637 0 11.25C0 11.863 0.607308 12.19 0.867692 12.3011L6.56 14.7382C6.96154 14.9106 7.48231 15 8 15C8.51769 15 9.03385 14.9106 9.43769 14.7378L15.1269 12.3014C15.3892 12.1904 16 11.8651 16 11.25C16 10.6348 15.3935 10.31 15.1292 10.1971Z" fill="#64A4EB"/>
</svg>
