<svg width="23" height="24" viewBox="0 0 23 24" fill="none" xmlns="http://www.w3.org/2000/svg">
<path d="M11.4999 13.7181C11.8049 13.7181 12.0974 13.5977 12.313 13.3833C12.5287 13.1689 12.6499 12.8781 12.6499 12.5749V1.14318C12.6499 0.839987 12.5287 0.549215 12.313 0.334828C12.0974 0.120441 11.8049 0 11.4999 0C11.1949 0 10.9023 0.120441 10.6867 0.334828C10.471 0.549215 10.3499 0.839987 10.3499 1.14318V12.5749C10.3499 12.8781 10.471 13.1689 10.6867 13.3833C10.9023 13.5977 11.1949 13.7181 11.4999 13.7181Z" fill="#FF4F4F"/>
<path d="M16.7785 2.41204C16.507 2.27258 16.191 2.24601 15.8998 2.3382C15.6087 2.43039 15.3663 2.63377 15.226 2.90361C15.0857 3.17345 15.059 3.48764 15.1517 3.77706C15.2445 4.06648 15.449 4.30743 15.7205 4.4469C17.553 5.38735 19.0144 6.91257 19.8703 8.77772C20.7262 10.6429 20.9268 12.7398 20.44 14.7319C19.9532 16.724 18.8072 18.4958 17.186 19.7628C15.5647 21.0298 13.5623 21.7186 11.5 21.7186C9.43773 21.7186 7.43525 21.0298 5.81401 19.7628C4.19276 18.4958 3.04677 16.724 2.55998 14.7319C2.07319 12.7398 2.27383 10.6429 3.1297 8.77772C3.98558 6.91257 5.44704 5.38735 7.2795 4.4469C7.41391 4.37784 7.53332 4.28314 7.63091 4.16821C7.7285 4.05328 7.80237 3.92037 7.84829 3.77706C7.8942 3.63375 7.91128 3.48286 7.89853 3.33299C7.88579 3.18312 7.84347 3.03722 7.774 2.90361C7.70453 2.77 7.60927 2.6513 7.49365 2.55429C7.37804 2.45727 7.24433 2.38385 7.10017 2.3382C6.956 2.29255 6.80421 2.27558 6.65345 2.28825C6.50269 2.30092 6.35591 2.34299 6.2215 2.41204C3.9315 3.58813 2.10535 5.49488 1.03612 7.8263C-0.0331059 10.1577 -0.283418 12.7786 0.325356 15.2684C0.934131 17.7582 2.36669 19.9725 4.39314 21.5559C6.4196 23.1394 8.92243 24.0002 11.5 24.0002C14.0776 24.0002 16.5804 23.1394 18.6069 21.5559C20.6333 19.9725 22.0659 17.7582 22.6746 15.2684C23.2834 12.7786 23.0331 10.1577 21.9639 7.8263C20.8946 5.49488 19.0685 3.58813 16.7785 2.41204Z" fill="#FF4F4F"/>
</svg>
