<svg width="27" height="37" viewBox="0 0 27 37" fill="none" xmlns="http://www.w3.org/2000/svg">
<path d="M13.4999 36.1998C20.9061 36.1998 26.9089 31.7748 26.9089 24.0311C26.9089 20.7123 25.7915 15.1811 21.3218 10.7561C21.8805 14.0748 18.5283 15.1811 18.5283 15.1811C20.2044 9.6498 15.7347 1.90605 9.03015 0.799805C9.82799 5.2248 10.1476 9.6498 4.56046 14.0748C1.7669 16.2873 0.0907593 20.1127 0.0907593 24.0311C0.0907593 31.7748 6.09356 36.1998 13.4999 36.1998ZM13.4999 33.9873C9.79671 33.9873 6.7953 31.7748 6.7953 27.9029C6.7953 26.2436 7.35402 23.4779 9.58887 21.2654C9.30951 22.9248 11.265 24.0311 11.265 24.0311C10.4269 21.2654 12.3824 16.8404 15.7347 16.2873C15.3347 18.4998 15.176 20.7123 17.9695 22.9248C19.3663 24.0311 20.2044 25.9427 20.2044 27.9029C20.2044 31.7748 17.203 33.9873 13.4999 33.9873Z" fill="white"/>
</svg>
