<svg width="20" height="21" viewBox="0 0 20 21" fill="none" xmlns="http://www.w3.org/2000/svg">
<path d="M0 18.6V7.8C0 7.42 0.0887498 7.06 0.26625 6.72C0.44375 6.38 0.688333 6.1 1 5.88L8.5 0.48C8.9375 0.16 9.4375 0 10 0C10.5625 0 11.0625 0.16 11.5 0.48L19 5.88C19.3125 6.1 19.5575 6.38 19.735 6.72C19.9125 7.06 20.0008 7.42 20 7.8V18.6C20 19.26 19.755 19.8252 19.265 20.2956C18.775 20.766 18.1867 21.0008 17.5 21H13.75C13.3958 21 13.0992 20.8848 12.86 20.6544C12.6208 20.424 12.5008 20.1392 12.5 19.8V13.8C12.5 13.46 12.38 13.1752 12.14 12.9456C11.9 12.716 11.6033 12.6008 11.25 12.6H8.75C8.39583 12.6 8.09916 12.7152 7.86 12.9456C7.62083 13.176 7.50083 13.4608 7.5 13.8V19.8C7.5 20.14 7.38 20.4252 7.14 20.6556C6.9 20.886 6.60333 21.0008 6.25 21H2.5C1.8125 21 1.22417 20.7652 0.735 20.2956C0.245833 19.826 0.000833333 19.2608 0 18.6Z" fill="white"/>
</svg>
