<svg width="24" height="26" viewBox="0 0 24 26" fill="none" xmlns="http://www.w3.org/2000/svg">
<path d="M0.636353 22.6429V9.78571C0.636353 9.33333 0.737205 8.90476 0.938909 8.5C1.14061 8.09524 1.41855 7.7619 1.77272 7.5L10.2954 1.07143C10.7926 0.690476 11.3608 0.5 12 0.5C12.6392 0.5 13.2074 0.690476 13.7045 1.07143L22.2273 7.5C22.5824 7.7619 22.8608 8.09524 23.0625 8.5C23.2642 8.90476 23.3646 9.33333 23.3636 9.78571V22.6429C23.3636 23.4286 23.0852 24.1014 22.5284 24.6614C21.9716 25.2214 21.303 25.5009 20.5227 25.5H16.2613C15.8589 25.5 15.5218 25.3629 15.25 25.0886C14.9782 24.8143 14.8418 24.4752 14.8409 24.0714V16.9286C14.8409 16.5238 14.7045 16.1848 14.4318 15.9114C14.1591 15.6381 13.822 15.501 13.4204 15.5H10.5795C10.1771 15.5 9.83995 15.6371 9.56817 15.9114C9.29639 16.1857 9.16002 16.5248 9.15908 16.9286V24.0714C9.15908 24.4762 9.02271 24.8157 8.74999 25.09C8.47726 25.3643 8.14014 25.5009 7.73862 25.5H3.47726C2.69601 25.5 2.02745 25.2205 1.47158 24.6614C0.915708 24.1024 0.6373 23.4295 0.636353 22.6429Z" fill="#2764E4"/>
</svg>
