<svg width="15" height="15" viewBox="0 0 15 15" fill="none" xmlns="http://www.w3.org/2000/svg">
<path d="M7.5 15C3.35775 15 0 11.6423 0 7.5C0 3.35775 3.35775 0 7.5 0C11.6423 0 15 3.35775 15 7.5C15 11.6423 11.6423 15 7.5 15ZM7.5 5.625C7.79837 5.625 8.08452 5.50647 8.2955 5.2955C8.50647 5.08452 8.625 4.79837 8.625 4.5C8.625 4.20163 8.50647 3.91548 8.2955 3.7045C8.08452 3.49353 7.79837 3.375 7.5 3.375C7.20163 3.375 6.91548 3.49353 6.7045 3.7045C6.49353 3.91548 6.375 4.20163 6.375 4.5C6.375 4.79837 6.49353 5.08452 6.7045 5.2955C6.91548 5.50647 7.20163 5.625 7.5 5.625ZM9 9.75H8.25V6.375H6V7.875H6.75V9.75H6V11.25H9V9.75Z" fill="white"/>
</svg>
