<svg width="19" height="19" viewBox="0 0 19 19" fill="none" xmlns="http://www.w3.org/2000/svg">
<path d="M9.20903 12.6875L6.13068 9.5M6.13068 9.5L9.20903 6.3125M6.13068 9.5H17.418M12.2874 4.45206V4.4C12.2874 3.21 12.2874 2.615 12.0637 2.16025C11.8667 1.75969 11.5537 1.43562 11.1669 1.23162C10.7277 1 10.1531 1 9.00381 1H4.28367C3.13442 1 2.55979 1 2.12164 1.23162C1.73479 1.43562 1.4208 1.75969 1.22379 2.16025C1.00009 2.61394 1.00009 3.20894 1.00009 4.39681V14.6043C1.00009 15.7921 1.00009 16.3861 1.22379 16.8398C1.4208 17.2397 1.73512 17.5648 2.12164 17.7684C2.55979 18 3.13339 18 4.28059 18H9.00689C10.1541 18 10.7287 18 11.1669 17.7684C11.553 17.5646 11.8669 17.2396 12.0637 16.8398C12.2874 16.385 12.2874 15.79 12.2874 14.6V14.5469" stroke="white" stroke-width="2" stroke-linecap="round" stroke-linejoin="round"/>
</svg>
