<svg width="35" height="35" viewBox="0 0 35 35" fill="none" xmlns="http://www.w3.org/2000/svg">
<path d="M18.5686 0C19.8594 1.20273 20.8947 2.65311 21.6128 4.26463C22.3309 5.87615 22.717 7.61579 22.7481 9.37977C22.7792 11.1437 22.4547 12.8959 21.7939 14.5318C21.1332 16.1676 20.1496 17.6536 18.9021 18.9011C17.6545 20.1486 16.1684 21.1321 14.5325 21.7929C12.8966 22.4536 11.1443 22.7781 9.38024 22.747C7.61617 22.7158 5.87645 22.3297 4.26485 21.6117C2.65325 20.8937 1.20279 19.8584 0 18.5676C0.557056 27.7376 8.17017 35 17.4807 35C27.1574 35 35 27.1578 35 17.4834C35 8.17326 27.7372 0.560533 18.5686 0Z" fill="white"/>
</svg>
