<svg width="22" height="24" viewBox="0 0 22 24" fill="none" xmlns="http://www.w3.org/2000/svg">
<path d="M19.7057 1.0919C19.3522 0.745634 18.9325 0.470972 18.4705 0.283617C18.0085 0.0962613 17.5133 -0.000114201 17.0133 1.01554e-07C16.5132 0.000114404 16.0181 0.0967162 15.5562 0.284283C15.0943 0.47185 14.6747 0.746703 14.3214 1.09313L2.36971 12.8099C1.65759 13.5087 1.2575 14.4554 1.25714 15.4425V19.3847C1.25714 19.8942 1.67954 20.3077 2.2 20.3077H6.25177C7.26126 20.3077 8.22926 19.9139 8.94206 19.216L20.8849 7.51646C21.5973 6.81735 21.9974 5.87015 21.9974 4.88263C21.9974 3.89512 21.5973 2.94792 20.8849 2.24881L19.7057 1.0919ZM0.942857 22.1539C0.692796 22.1539 0.452976 22.2511 0.276156 22.4242C0.0993363 22.5973 0 22.8321 0 23.0769C0 23.3217 0.0993363 23.5565 0.276156 23.7296C0.452976 23.9028 0.692796 24 0.942857 24H21.0571C21.3072 24 21.547 23.9028 21.7238 23.7296C21.9007 23.5565 22 23.3217 22 23.0769C22 22.8321 21.9007 22.5973 21.7238 22.4242C21.547 22.2511 21.3072 22.1539 21.0571 22.1539H0.942857Z" fill="#2764E4"/>
</svg>
