<svg width="16" height="17" viewBox="0 0 16 17" fill="none" xmlns="http://www.w3.org/2000/svg">
<path d="M7.11156 8.20661C8.21179 8.20661 9.26696 7.7743 10.0449 7.00478C10.8229 6.23526 11.26 5.19157 11.26 4.10331C11.26 3.01504 10.8229 1.97135 10.0449 1.20183C9.26696 0.432311 8.21179 0 7.11156 0C6.01134 0 4.95617 0.432311 4.17819 1.20183C3.40022 1.97135 2.96315 3.01504 2.96315 4.10331C2.96315 5.19157 3.40022 6.23526 4.17819 7.00478C4.95617 7.7743 6.01134 8.20661 7.11156 8.20661ZM2.07421 9.37899C1.52409 9.37899 0.99651 9.59514 0.607521 9.9799C0.218532 10.3647 0 10.8865 0 11.4306V11.7237C0 13.1265 0.902576 14.3129 2.18384 15.1195C3.26836 15.8024 4.67467 16.252 6.22262 16.3775V15.3622C6.22269 15.0513 6.34761 14.7531 6.5699 14.5333L9.25807 11.8744C9.08883 11.0261 9.21632 10.1461 9.61958 9.37899H2.07421ZM15.1334 13.2097C14.7871 13.5525 14.3603 13.805 13.8912 13.9446C13.4221 14.0843 12.9253 14.1067 12.4452 14.0099V14.3622C12.4452 14.4399 12.414 14.5144 12.3584 14.5694C12.3029 14.6244 12.2275 14.6553 12.1489 14.6553H11.5563C11.4777 14.6553 11.4023 14.6861 11.3468 14.7411C11.2912 14.7961 11.26 14.8706 11.26 14.9483V15.5345C11.26 15.6123 11.2288 15.6868 11.1732 15.7418C11.1176 15.7967 11.0422 15.8276 10.9637 15.8276H10.371C10.2924 15.8276 10.2171 15.8585 10.1615 15.9135C10.1059 15.9684 10.0747 16.043 10.0747 16.1207V16.7069C10.0747 16.7846 10.0435 16.8592 9.98793 16.9142C9.93236 16.9691 9.85699 17 9.7784 17H7.40788C7.32929 17 7.25392 16.9691 7.19835 16.9142C7.14278 16.8592 7.11156 16.7846 7.11156 16.7069V15.3628C7.11158 15.2852 7.1427 15.2108 7.19809 15.1559L10.2507 12.1364C10.07 11.6427 10.0267 11.11 10.1253 10.5941C10.2239 10.0781 10.4608 9.59786 10.8113 9.20348C11.1618 8.8091 11.6129 8.51509 12.1176 8.35219C12.6223 8.18929 13.1619 8.16349 13.6801 8.27747C14.1983 8.39146 14.676 8.64105 15.0633 9.00015C15.4506 9.35925 15.7333 9.81468 15.8818 10.3188C16.0302 10.8229 16.039 11.3573 15.9073 11.8659C15.7755 12.3746 15.5087 12.8383 15.1334 13.2097ZM13.4563 10.7237C13.5109 10.7797 13.5763 10.8243 13.6486 10.8551C13.7209 10.8858 13.7987 10.902 13.8774 10.9026C13.9561 10.9033 14.0341 10.8885 14.1069 10.859C14.1798 10.8295 14.2459 10.786 14.3016 10.731C14.3572 10.6759 14.4012 10.6105 14.431 10.5384C14.4608 10.4664 14.4758 10.3892 14.4751 10.3114C14.4745 10.2335 14.4581 10.1566 14.4271 10.0851C14.396 10.0136 14.3508 9.9489 14.2942 9.89483C14.1825 9.78805 14.0328 9.72897 13.8774 9.7303C13.722 9.73164 13.5734 9.79329 13.4635 9.90197C13.3536 10.0107 13.2913 10.1577 13.2899 10.3114C13.2886 10.4651 13.3483 10.6131 13.4563 10.7237Z" fill="white"/>
</svg>
