<svg width="69" height="69" viewBox="0 0 69 69" fill="none" xmlns="http://www.w3.org/2000/svg">
<g filter="url(#filter0_f_214_664)">
<circle cx="34.5" cy="34.5" r="24.5" fill="#1FB990"/>
</g>
<circle cx="34.5" cy="34.5" r="24.5" fill="#1FB990"/>
<path fill-rule="evenodd" clip-rule="evenodd" d="M36.2128 24.2235C36.2128 23.7693 36.0323 23.3336 35.7111 23.0124C35.3899 22.6912 34.9542 22.5107 34.5 22.5107C34.0457 22.5107 33.6101 22.6912 33.2889 23.0124C32.9677 23.3336 32.7872 23.7693 32.7872 24.2235V35.6419C32.7872 36.0962 32.9677 36.5319 33.2889 36.8531C33.6101 37.1743 34.0457 37.3547 34.5 37.3547C34.9542 37.3547 35.3899 37.1743 35.7111 36.8531C36.0323 36.5319 36.2128 36.0962 36.2128 35.6419V24.2235ZM29.7659 27.3636C29.9533 27.239 30.1144 27.0788 30.2399 26.892C30.3654 26.7053 30.4529 26.4956 30.4974 26.275C30.5419 26.0544 30.5425 25.8272 30.4992 25.6064C30.4558 25.3855 30.3694 25.1754 30.2449 24.988C30.1204 24.8005 29.9601 24.6395 29.7734 24.514C29.5866 24.3884 29.3769 24.3009 29.1563 24.2565C28.9357 24.212 28.7085 24.2114 28.4877 24.2547C28.2669 24.298 28.0567 24.3844 27.8693 24.509C26.2205 25.6023 24.8681 27.0869 23.933 28.8304C22.9979 30.5738 22.5092 32.5217 22.5106 34.5001C22.5106 41.1217 27.8784 46.4895 34.5 46.4895C41.1215 46.4895 46.4893 41.1217 46.4893 34.5001C46.4893 30.3278 44.3575 26.6556 41.1307 24.509C40.7521 24.2576 40.2892 24.1669 39.8438 24.2569C39.3984 24.3468 39.007 24.61 38.7556 24.9885C38.5043 25.3671 38.4136 25.83 38.5035 26.2754C38.5935 26.7208 38.8567 27.1122 39.2352 27.3636C40.7682 28.3806 41.933 29.8642 42.5571 31.5948C43.1812 33.3253 43.2314 35.2109 42.7003 36.9722C42.1692 38.7336 41.085 40.2771 39.6083 41.3742C38.1316 42.4713 36.3408 43.0638 34.5011 43.0638C32.6614 43.0638 30.8707 42.4713 29.3939 41.3742C27.9172 40.2771 26.833 38.7336 26.3019 36.9722C25.7708 35.2109 25.821 33.3253 26.4451 31.5948C27.0692 29.8642 28.2329 28.3806 29.7659 27.3636Z" fill="white"/>
<defs>
<filter id="filter0_f_214_664" x="0" y="0" width="69" height="69" filterUnits="userSpaceOnUse" color-interpolation-filters="sRGB">
<feFlood flood-opacity="0" result="BackgroundImageFix"/>
<feBlend mode="normal" in="SourceGraphic" in2="BackgroundImageFix" result="shape"/>
<feGaussianBlur stdDeviation="5" result="effect1_foregroundBlur_214_664"/>
</filter>
</defs>
</svg>
