<svg width="22" height="22" viewBox="0 0 22 22" fill="none" xmlns="http://www.w3.org/2000/svg">
<path d="M10.5417 12.5749C10.8213 12.5749 11.0894 12.4645 11.2871 12.2679C11.4848 12.0714 11.5959 11.8049 11.5959 11.527V1.0479C11.5959 0.769983 11.4848 0.503444 11.2871 0.306924C11.0894 0.110404 10.8213 0 10.5417 0C10.2621 0 9.994 0.110404 9.79631 0.306924C9.59861 0.503444 9.48755 0.769983 9.48755 1.0479V11.527C9.48755 11.8049 9.59861 12.0714 9.79631 12.2679C9.994 12.4645 10.2621 12.5749 10.5417 12.5749Z" fill="white"/>
<path d="M15.3803 2.21096C15.1315 2.08311 14.8417 2.05877 14.5748 2.14327C14.308 2.22777 14.0858 2.41421 13.9572 2.66156C13.8286 2.90891 13.8041 3.19691 13.8891 3.46221C13.9741 3.72752 14.1616 3.94838 14.4105 4.07623C16.0902 4.93831 17.4299 6.33641 18.2144 8.04613C18.999 9.75585 19.1829 11.678 18.7367 13.5041C18.2905 15.3302 17.24 16.9543 15.7538 18.1157C14.2677 19.2771 12.4321 19.9085 10.5417 19.9085C8.65125 19.9085 6.81565 19.2771 5.32951 18.1157C3.84336 16.9543 2.79287 15.3302 2.34665 13.5041C1.90042 11.678 2.08435 9.75585 2.8689 8.04613C3.65344 6.33641 4.99312 4.93831 6.67288 4.07623C6.79608 4.01293 6.90554 3.92612 6.995 3.82077C7.08446 3.71542 7.15217 3.59358 7.19426 3.46221C7.23635 3.33085 7.252 3.19253 7.24032 3.05515C7.22864 2.91778 7.18985 2.78403 7.12617 2.66156C7.06249 2.53908 6.97516 2.43027 6.86918 2.34135C6.7632 2.25242 6.64064 2.18511 6.50849 2.14327C6.37634 2.10143 6.23719 2.08587 6.09899 2.09748C5.9608 2.1091 5.82625 2.14766 5.70304 2.21096C3.60387 3.28903 1.92991 5.03687 0.94978 7.17399C-0.030347 9.31112 -0.2598 11.7136 0.298243 13.9959C0.856286 16.2782 2.16947 18.3079 4.02705 19.7594C5.88463 21.2109 8.1789 22 10.5417 22C12.9044 22 15.1987 21.2109 17.0563 19.7594C18.9139 18.3079 20.227 16.2782 20.7851 13.9959C21.3431 11.7136 21.1137 9.31112 20.1336 7.17399C19.1534 5.03687 17.4795 3.28903 15.3803 2.21096Z" fill="white"/>
</svg>
