<svg width="15" height="15" viewBox="0 0 15 15" fill="none" xmlns="http://www.w3.org/2000/svg">
<path d="M1.65605 14.9522C1.20064 14.9522 0.810913 14.7902 0.486879 14.4661C0.162845 14.1421 0.000552017 13.7521 0 13.2961V1.70378C0 1.24837 0.162293 0.858642 0.486879 0.534608C0.811465 0.210575 1.20119 0.0482815 1.65605 0.0477295H10.9092C11.13 0.0477295 11.3406 0.0891308 11.541 0.171933C11.7414 0.254736 11.9172 0.372039 12.0685 0.523844L14.4283 2.88372C14.5801 3.03552 14.6975 3.21161 14.7803 3.412C14.8631 3.61238 14.9045 3.8227 14.9045 4.04295V13.2961C14.9045 13.7515 14.7424 14.1415 14.4184 14.4661C14.0944 14.7907 13.7044 14.9527 13.2484 14.9522H1.65605ZM7.45223 12.4681C8.14225 12.4681 8.72877 12.2266 9.21178 11.7436C9.6948 11.2606 9.93631 10.6741 9.93631 9.98403C9.93631 9.29401 9.6948 8.70749 9.21178 8.22448C8.72877 7.74147 8.14225 7.49996 7.45223 7.49996C6.76221 7.49996 6.17569 7.74147 5.69267 8.22448C5.20966 8.70749 4.96815 9.29401 4.96815 9.98403C4.96815 10.6741 5.20966 11.2606 5.69267 11.7436C6.17569 12.2266 6.76221 12.4681 7.45223 12.4681ZM3.3121 5.84391H9.10828C9.34289 5.84391 9.53968 5.76442 9.69866 5.60544C9.85764 5.44645 9.93686 5.24994 9.93631 5.01588V3.35983C9.93631 3.12522 9.85681 2.92871 9.69783 2.77028C9.53885 2.61185 9.34233 2.53236 9.10828 2.53181H3.3121C3.07749 2.53181 2.88098 2.6113 2.72255 2.77028C2.56412 2.92926 2.48463 3.12578 2.48408 3.35983V5.01588C2.48408 5.25049 2.56357 5.44728 2.72255 5.60626C2.88153 5.76524 3.07805 5.84446 3.3121 5.84391Z" fill="white"/>
</svg>
