<svg width="15" height="15" viewBox="0 0 15 15" fill="none" xmlns="http://www.w3.org/2000/svg">
<path d="M7.5 15C11.6421 15 15 11.6421 15 7.5C15 3.35786 11.6421 0 7.5 0C3.35786 0 0 3.35786 0 7.5C0 11.6421 3.35786 15 7.5 15Z" fill="#64A4EB"/>
<path d="M7.49987 1.9166C7.49987 1.79744 7.49987 1.73827 7.5382 1.7016C7.57654 1.66493 7.63487 1.6666 7.74987 1.6716C8.75171 1.71462 9.72555 2.01517 10.5774 2.54425C11.4292 3.07332 12.1303 3.81306 12.6129 4.69204C13.0955 5.57103 13.3434 6.55958 13.3326 7.56229C13.3218 8.565 13.0528 9.548 12.5513 10.4164C12.0499 11.2848 11.3331 12.0093 10.4701 12.5199C9.60709 13.0306 8.62702 13.3101 7.62448 13.3316C6.62194 13.353 5.6308 13.1157 4.74673 12.6425C3.86265 12.1692 3.11549 11.4761 2.57737 10.6299C2.51571 10.5333 2.48487 10.4841 2.49737 10.4324C2.50987 10.3808 2.56154 10.3508 2.66404 10.2916L7.37487 7.57244C7.43571 7.5366 7.46654 7.5191 7.4832 7.48994C7.49987 7.4616 7.49987 7.42577 7.49987 7.35577V1.9166Z" fill="#2D3748"/>
</svg>
