<svg width="13" height="17" viewBox="0 0 13 17" fill="none" xmlns="http://www.w3.org/2000/svg">
<path d="M7.31291 9.35021H8.93791C9.15339 9.35021 9.36005 9.43976 9.51243 9.59917C9.6648 9.75858 9.7504 9.97479 9.7504 10.2002C9.7504 10.4257 9.6648 10.6419 9.51243 10.8013C9.36005 10.9607 9.15339 11.0502 8.93791 11.0502H6.50041C6.39362 11.0506 6.28782 11.0288 6.1891 10.9862C6.09037 10.9436 6.00068 10.881 5.92517 10.802C5.84965 10.723 5.78982 10.6292 5.7491 10.5259C5.70838 10.4226 5.68759 10.3119 5.68791 10.2002V6.80015C5.68791 6.57471 5.77351 6.35851 5.92588 6.1991C6.07826 6.03969 6.28492 5.95013 6.50041 5.95013C6.71589 5.95013 6.92256 6.03969 7.07493 6.1991C7.2273 6.35851 7.31291 6.57471 7.31291 6.80015V9.35021ZM1.51897 5.83198C1.33333 5.74191 1.17235 5.60438 1.05089 5.43208C0.929424 5.25977 0.851389 5.05825 0.823977 4.84609C0.796564 4.63393 0.820658 4.41796 0.894036 4.21811C0.967414 4.01826 1.08771 3.84095 1.24384 3.70254C1.39996 3.56414 1.58689 3.46909 1.78737 3.42616C1.98786 3.38323 2.19545 3.39381 2.39099 3.45692C2.58654 3.52003 2.76375 3.63363 2.90628 3.78726C3.04881 3.94088 3.15207 4.12958 3.20653 4.33595C3.49939 4.15591 3.80528 4.00016 4.12141 3.87014C3.76607 3.61182 3.49887 3.24153 3.35874 2.81324C3.21861 2.38495 3.21287 1.92103 3.34236 1.48909C3.47186 1.05715 3.72981 0.679763 4.07865 0.411912C4.42748 0.14406 4.84895 -0.000253055 5.28166 3.33107e-07H7.71916C8.15186 -0.000253055 8.57334 0.14406 8.92217 0.411912C9.271 0.679763 9.52896 1.05715 9.65845 1.48909C9.78794 1.92103 9.78221 2.38495 9.64208 2.81324C9.50194 3.24153 9.23474 3.61182 8.87941 3.87014C9.19682 4.00104 9.50178 4.15631 9.79428 4.33595C9.84874 4.12958 9.952 3.94088 10.0945 3.78726C10.2371 3.63363 10.4143 3.52003 10.6098 3.45692C10.8054 3.39381 11.013 3.38323 11.2134 3.42616C11.4139 3.46909 11.6008 3.56414 11.757 3.70254C11.9131 3.84095 12.0334 4.01826 12.1068 4.21811C12.1802 4.41796 12.2042 4.63393 12.1768 4.84609C12.1494 5.05825 12.0714 5.25977 11.9499 5.43208C11.8285 5.60438 11.6675 5.74191 11.4818 5.83198C12.2764 6.82382 12.7839 8.03225 12.9448 9.31534C13.1057 10.5984 12.9133 11.9029 12.3902 13.0756C11.867 14.2483 11.035 15.2404 9.99161 15.9356C8.94826 16.6307 7.73697 17 6.5 17C5.26303 17 4.05174 16.6307 3.00839 15.9356C1.96504 15.2404 1.13295 14.2483 0.609843 13.0756C0.0867348 11.9029 -0.105671 10.5984 0.0552237 9.31534C0.216118 8.03225 0.724443 6.82382 1.51897 5.83198ZM6.50041 15.3003C7.79334 15.3003 9.03331 14.763 9.94755 13.8066C10.8618 12.8501 11.3754 11.5529 11.3754 10.2002C11.3754 8.84759 10.8618 7.55036 9.94755 6.5939C9.03331 5.63745 7.79334 5.10011 6.50041 5.10011C5.20748 5.10011 3.9675 5.63745 3.05326 6.5939C2.13902 7.55036 1.62541 8.84759 1.62541 10.2002C1.62541 11.5529 2.13902 12.8501 3.05326 13.8066C3.9675 14.763 5.20748 15.3003 6.50041 15.3003ZM5.28166 1.70004C5.17391 1.70004 5.07058 1.74482 4.9944 1.82452C4.91821 1.90423 4.87541 2.01233 4.87541 2.12505C4.87541 2.23777 4.91821 2.34587 4.9944 2.42558C5.07058 2.50528 5.17391 2.55006 5.28166 2.55006H7.71916C7.8269 2.55006 7.93023 2.50528 8.00642 2.42558C8.0826 2.34587 8.12541 2.23777 8.12541 2.12505C8.12541 2.01233 8.0826 1.90423 8.00642 1.82452C7.93023 1.74482 7.8269 1.70004 7.71916 1.70004H5.28166Z" fill="#9362C7"/>
</svg>
