<svg width="14" height="14" viewBox="0 0 14 14" fill="none" xmlns="http://www.w3.org/2000/svg">
<path d="M10.6474 4.38421L12.7474 6.48421C12.8825 6.6193 13.0512 6.69004 13.2536 6.69642C13.456 6.70281 13.6311 6.63207 13.7789 6.48421C13.914 6.34912 13.9845 6.18039 13.9904 5.978C13.9963 5.77561 13.932 5.60049 13.7974 5.45263L13.2632 4.9L13.7789 4.38421C13.9263 4.23684 14 4.06491 14 3.86842C14 3.67193 13.9263 3.5 13.7789 3.35263L12.7474 2.32105L13.2816 1.76842C13.4167 1.63333 13.4842 1.4646 13.4842 1.26221C13.4842 1.05982 13.4105 0.884702 13.2632 0.736842C13.1281 0.601754 12.9591 0.531263 12.7562 0.525368C12.5533 0.519474 12.3785 0.583824 12.2316 0.718421L11.6789 1.25263L10.6474 0.221053C10.5 0.0736842 10.3281 0 10.1316 0C9.93509 0 9.76316 0.0736842 9.61579 0.221053L9.1 0.736842L8.54737 0.202632C8.41228 0.0675439 8.2433 0 8.04042 0C7.83754 0 7.66267 0.0736842 7.51579 0.221053C7.3807 0.35614 7.31316 0.52807 7.31316 0.736842C7.31316 0.945614 7.3807 1.11754 7.51579 1.25263L9.61579 3.35263L3.35263 9.61579L1.25263 7.51579C1.11754 7.3807 0.948562 7.31021 0.745684 7.30432C0.542807 7.29842 0.367929 7.36891 0.221052 7.51579C0.0859652 7.65088 0.0152283 7.81986 0.00884247 8.02274C0.00245667 8.22561 0.0670519 8.40049 0.202631 8.54737L0.736843 9.1L0.221052 9.61579C0.0736837 9.76316 0 9.93509 0 10.1316C0 10.3281 0.0736837 10.5 0.221052 10.6474L1.25263 11.6789L0.718421 12.2316C0.583334 12.3667 0.51579 12.5354 0.51579 12.7378C0.51579 12.9402 0.589475 13.1153 0.736843 13.2632C0.87193 13.3982 1.04067 13.469 1.24305 13.4754C1.44544 13.4818 1.62056 13.4172 1.76842 13.2816L2.32105 12.7474L3.35263 13.7789C3.5 13.9263 3.67193 14 3.86842 14C4.06491 14 4.23684 13.9263 4.38421 13.7789L4.9 13.2632L5.45263 13.7974C5.58772 13.9325 5.75646 14 5.95884 14C6.16123 14 6.33635 13.9263 6.48421 13.7789C6.6193 13.6439 6.68684 13.4719 6.68684 13.2632C6.68684 13.0544 6.6193 12.8825 6.48421 12.7474L4.38421 10.6474L10.6474 4.38421Z" fill="#64A4EB"/>
</svg>
