<svg width="25" height="25" viewBox="0 0 25 25" fill="none" xmlns="http://www.w3.org/2000/svg">
<path d="M14.2677 25L12.5 23.2323L16.9823 18.75L6.25 8.01768L1.76768 12.5L0 10.7323L1.76768 8.90152L0 7.13384L2.65152 4.48232L0.883838 2.65152L2.65152 0.883838L4.48232 2.65152L7.13384 0L8.90152 1.76768L10.7323 0L12.5 1.76768L8.01768 6.25L18.75 16.9823L23.2323 12.5L25 14.2677L23.2323 16.0985L25 17.8662L22.3485 20.5177L24.1162 22.3485L22.3485 24.1162L20.5177 22.3485L17.8662 25L16.0985 23.2323L14.2677 25Z" fill="#2764E4"/>
</svg>
