<svg width="17" height="17" viewBox="0 0 17 17" fill="none" xmlns="http://www.w3.org/2000/svg">
<path d="M16 8.5H13.5317C13.3567 8.5 13.2683 8.5 13.1942 8.535C13.1264 8.5671 13.0685 8.61691 13.0267 8.67917C12.9758 8.7525 12.95 8.85001 12.8975 9.04584L11.3833 14.7509C11.1892 15.4801 11.0925 15.8451 10.9467 15.9393C10.8867 15.9792 10.8163 16.0003 10.7443 16C10.6724 15.9997 10.6021 15.978 10.5425 15.9376C10.3967 15.8418 10.3025 15.4759 10.1142 14.7459L6.88667 2.25408C6.6975 1.52407 6.60333 1.15823 6.4575 1.06239C6.39791 1.02202 6.32765 1.0003 6.25567 1C6.18369 0.999706 6.11325 1.02084 6.05333 1.06073C5.9075 1.15489 5.81083 1.51907 5.61667 2.24908L4.1025 7.95333C4.05 8.15 4.02417 8.2475 3.97417 8.32C3.93221 8.38268 3.87403 8.43279 3.80583 8.465C3.73167 8.5 3.64417 8.5 3.46833 8.5H1" stroke="#2764E4" stroke-width="2" stroke-linecap="round" stroke-linejoin="round"/>
</svg>
