<svg width="20" height="21" viewBox="0 0 20 21" fill="none" xmlns="http://www.w3.org/2000/svg">
<path d="M10 10.5C8.625 10.5 7.44792 9.98594 6.46875 8.95781C5.48958 7.92969 5 6.69375 5 5.25C5 3.80625 5.48958 2.57031 6.46875 1.54219C7.44792 0.514063 8.625 0 10 0C11.375 0 12.5521 0.514063 13.5312 1.54219C14.5104 2.57031 15 3.80625 15 5.25C15 6.69375 14.5104 7.92969 13.5312 8.95781C12.5521 9.98594 11.375 10.5 10 10.5ZM0 21V17.325C0 16.5813 0.1825 15.8979 0.5475 15.2749C0.9125 14.6519 1.39667 14.1759 2 13.8469C3.29167 13.1687 4.60417 12.6604 5.9375 12.3217C7.27083 11.9831 8.625 11.8134 10 11.8125C11.375 11.8116 12.7292 11.9814 14.0625 12.3217C15.3958 12.6621 16.7083 13.1705 18 13.8469C18.6042 14.175 19.0887 14.651 19.4537 15.2749C19.8187 15.8987 20.0008 16.5821 20 17.325V21H0Z" fill="white"/>
</svg>
